<?xml version="1.0" encoding="UTF-8"?>
<svg id="Layer_1" data-name="Layer 1" xmlns="http://www.w3.org/2000/svg" viewBox="0 0 163 163">
  <g id="Icon">
    <circle id="Circle" cx="81.5" cy="81.5" r="81.5" style="fill: #51bc7d; stroke-width: 0px;"/>
  </g>
  <g id="Plant">
    <path d="M93.38,88.68c20.37,1.17,42.5-21.66,36.86-38.17q-.23-.11-.44-.22c-16.58,6.5-34.24,16.46-41.15,31.2-2.34,4.98-3.13,6.74,4.73,7.19Z" style="fill: #fff; stroke-width: 0px;"/>
    <path d="M35.01,47.78c-2.05,15.12,6.43,30.54,22.85,37.79,4.54,2,17.13,5.84,20.44.96,1.79-2.63-2.44-9.18-4.29-11.71-8.35-11.47-24.57-21.35-39-27.04Z" style="fill: #fff; stroke-width: 0px;"/>
    <path d="M84.37,102.46c.68-8.6,2-17.18,2.68-25.79,4.25-2.83,7.47-7.66,9.11-11.93,6.26-16.37-.59-34.21-16.69-44.83-12.04,13.74-14.17,40.57-2.05,54.32.88,1.01,4.45,3.76,4.46,4.67,0,.22-.63,3.25-.71,4.37-1.39,18.39-4.93,42.95.54,60.03.31.91,4.57-1.41,4.64-1.63.09-.31-1.26-3.98-1.6-6.37-.49-3.29-.76-6.77-.9-10.08-.16-3.95.07-17.08.54-20.53,2.89,2.29,5.9,3.48,9.91,3.86,14.87,1.39,35.15-6.55,38.92-19.42-17.91-1.95-36.72,1.56-48.82,13.34Z" style="fill: #fff; stroke-width: 0px;"/>
    <path d="M31.08,84.38q-.13.19-.27.37c3.77,12.57,20.33,22.5,35.43,23.64,3.43.26,9.53.26,12.04-1.71-7.85-14.89-28.32-22.81-47.21-22.3Z" style="fill: #fff; stroke-width: 0px;"/>
  </g>
</svg>
