<svg xmlns="http://www.w3.org/2000/svg" width="229.2" height="65.01840738312572" viewBox="0 0 369.89473684210526 104.93004663557628" class="looka-1j8o68f"><defs id="SvgjsDefs1172"></defs><g id="SvgjsG1173" featurekey="S6ay6y-0" transform="matrix(1.1658894070619585,0,0,1.1658894070619585,-12.241838774150565,-5.829444811552226)" fill="#111111"><path xmlns="http://www.w3.org/2000/svg" d="M62.5414619,18.0083523c0,0-10.3252983,2.9021187-15.5734787,16.0189953  c-0.0114021-2.5721855-0.1788559-5.4682617-0.6480522-8.5266819l0.0077972,0.0028496c0,0-0.4121742-10.956706,6.7584-16.6222  c3.1612434-2.4976277,6.7694511-1.6265135,6.7694511-1.6265135c-9.4226341-0.3941159-11.4167099,11.2965565-11.4167099,11.2965565  c10.838131,2.62463,15.4579277-6.8510342,15.4579277-6.8510342c2.1972504-3.9493709,5.4039917-4.5663676,5.4039917-4.5663676  s-7.5388718-5.363379-16.3954964,0.9155765c0,0-6.1854057,3.8464241-7.7313499,12.1631107  C42.3317795,11.2163725,35.1222267,8.1565847,35.1222267,8.1565847C23.7998886,2.1014218,15.7923994,9.4806423,15.7923994,9.4806423  s3.8473463,0.2536612,7.0204592,4.5551949c0,0,6.8498631,10.4159794,19.1359558,5.7603455  c0,0-4.1137123-13.3923149-15.0826397-11.5542078c0,0,3.9800053-1.3616791,8.1709843,0.9146643  c5.0913162,2.770443,7.1841888,7.7140541,7.1841888,7.7140541c3.368145,6.7349758,3.3719864,15.3692818,2.962719,20.6114731  c-3.195919-6.7504826-7.6604805-10.277235-7.6604805-10.277235C23.9626865,15.268919,10.5,22.8655472,10.5,22.8655472  s5.2068691,1.5748692,8.1424751,8.5019436c0,0,5.9619789,16.507967,24.4047356,14.0207119  c0,0-1.2105751-19.7292976-16.9063549-20.6972027c0,0,5.925787-0.6041145,10.9336681,3.8621578  c6.0821877,5.4328079,7.318943,12.8985596,7.318943,12.8985596c0.8927727,3.8051529,0.4601173,9.7352524-0.2079506,14.7828369  c-5.5287399-6.3414307-12.7531929-6.6023903-12.7531929-6.6023903c-10.7033768-1.0283279-14.3909512,7.1923676-14.3909512,7.1923676  s3.0364971-1.0347137,6.9031601,1.2520065c0,0,8.7235012,5.8034363,16.6007748-1.6945763  c0,0-7.6148682-8.9614983-15.4194107-4.0462761c0,0,2.600584-2.3164711,6.5741901-1.9090195  c4.8289051,0.4990044,8.0804501,3.6235466,8.0804501,3.6235466c2.4989967,2.1071587,3.4853287,4.5213356,3.8661995,5.8321686  c-0.1499977,0.9181976-0.2968559,1.7553368-0.4333534,2.5011597c-13.9818039,0.1301956-19.9477406,1.3615685-19.9477406,2.8633614  c0,0.1053391,10.2531528,28.4836502,10.2531528,28.4836502C33.518795,94.4316864,38.9560738,95,45.6633873,95  c6.7071953,0,12.144474-0.5683136,12.144474-1.2694473c0,0,10.2532654-28.3783112,10.2532654-28.4836502  c0-1.4834404-5.6973572-2.7037506-19.4337425-2.8589134c0.2447243-2.0619011,0.4065895-4.5174599,0.2285461-7.8469849  c0.5455322-1.6303902,1.5308189-3.8865547,3.3097305-6.1622124c0,0,2.904068-4.2627716,8.2125282-5.9380798  c4.3689041-1.3751335,7.8494568,0.6287384,7.8494568,0.6287384c-9.9554787-3.7243233-16.3609352,8.1071434-16.3609352,8.1071434  c10.6581116,6.6110535,19.0691643-1.9261169,19.0691643-1.9261169c3.7970734-3.463028,7.4592819-3.0005074,7.4592819-3.0005074  s-6.1219864-8.3904457-17.9070015-4.7642822c0,0-7.2325974,1.7431412-11.9833031,9.0619392  c-0.151165-1.3308983-0.3331604-2.7355576-0.5884743-4.3100815c-0.0956535-0.5897522-0.2179565-1.1536217-0.3404884-1.7169228  l0.0407257,0.0563202c0,0-0.7252007-8.6706734,3.6098404-15.3708763c0,0,3.7007256-6.6379585,11.2807961-9.7798309  c6.2389336-2.5803947,11.622448-0.0799179,11.622448-0.0799179c-15.1309319-4.2010946-22.9699211,14.0106812-22.9699211,14.0106812  c16.5487556,8.3546486,27.7750893-5.2712631,27.7750893-5.2712631C84.0548096,22.5093956,89.5,22.7206459,89.5,22.7206459  S79.3821869,11.1700869,62.5414619,18.0083523z"></path></g><g id="SvgjsG1174" featurekey="j5pGhi-0" transform="matrix(3.4812006876318393,0,0,3.4812006876318393,110.4362225377148,3.9403250816399655)" fill="#111111"><path d="M3.584 4.746 l1.3965 0 l0 12.666 q-0.13671875 1.318359375 -0.966796875 2.705078125 t-2.5977 3.3887 q-0.654296875 -0.751953125 -0.966796875 -1.044921875 q1.171875 -1.201171875 2.172851563 -2.807617188 t0.96191 -3.1299 l0 -11.777 z M12.74414375 8.203 q2.470703125 0 4.1015625 1.787109375 q1.50390625 1.630859375 1.50390625 3.876953125 q0.01953125 5.546875 0 5.634765625 l-1.4551 0 l0 -2.4316 q-1.142578125 2.12890625 -4.150390625 2.3828125 q-2.4609375 0 -4.018554688 -1.674804688 t-1.5576 -3.9111 q0 -2.2265625 1.474609375 -3.8671875 q1.630859375 -1.796875 4.1015625 -1.796875 z M12.74414375 9.551 q-1.708984375 0 -2.939453125 1.26953125 t-1.2305 3.0664 q0 1.162109375 0.6298828125 2.236328125 t2.1338 1.8164 q3.76953125 0.83984375 5.361328125 -3.427734375 q0.087890625 -1.3671875 -0.29296875 -2.6171875 q-0.2734375 -0.56640625 -0.751953125 -1.07421875 q-1.201171875 -1.26953125 -2.91015625 -1.26953125 z M26.4062875 9.648 l-0.87891 0.91797 q-1.11328125 -1.07421875 -2.158203125 -1.07421875 q-0.673828125 0 -1.15234375 0.439453125 t-0.47852 1.0449 q0 0.5078125 0.400390625 0.9765625 q0.390625 0.498046875 1.650390625 1.142578125 q1.54296875 0.791015625 2.08984375 1.533203125 q0.537109375 0.751953125 0.537109375 1.689453125 q0 1.30859375 -0.9228515625 2.221679688 t-2.3096 0.91309 q-0.927734375 0 -1.772460938 -0.3955078125 t-1.3916 -1.1084 l0.86914 -0.98633 q1.0546875 1.19140625 2.236328125 1.19140625 q0.8203125 0 1.401367188 -0.5322265625 t0.58105 -1.2451 q0 -0.595703125 -0.380859375 -1.0546875 t-1.7285 -1.1523 q-1.455078125 -0.732421875 -1.97265625 -1.474609375 q-0.52734375 -0.72265625 -0.52734375 -1.66015625 q0 -1.220703125 0.8349609375 -2.026367188 t2.0947 -0.80566 q1.474609375 0 2.978515625 1.4453125 z M28.8183875 15.293 l0 -1.709 q0.17578125 -2.1875 0.91796875 -3.203125 q0.615234375 -0.927734375 1.611328125 -1.474609375 q0.654296875 -0.419921875 1.865234375 -0.44921875 q0.78125 0 1.58203125 0.29296875 t1.2402 0.78125 t0.88867 1.4648 q0.244140625 -0.625 1.025390625 -1.46484375 q0.380859375 -0.322265625 0.986328125 -0.634765625 q0.41015625 -0.263671875 1.904296875 -0.439453125 q1.11328125 0 2.138671875 0.556640625 t1.4404 1.5674 t0.41504 3.0127 l0 5.8496 l-1.4063 0 l0 -5.8496 q0 -1.71875 -0.244140625 -2.36328125 t-0.83984 -1.04 t-1.4355 -0.39551 q-1.58203125 0.107421875 -2.705078125 1.533203125 q-0.439453125 0.60546875 -0.6640625 2.685546875 l0 5.4297 l-1.377 0 l0 -5.4883 q0 -1.93359375 -0.4296875 -2.631835938 t-1.0254 -1.1133 t-1.4844 -0.41504 q-0.95703125 0 -1.645507813 0.48828125 t-1.0791 1.46 t-0.3125 3.1592 l0 4.541 l-1.3672 0 l0 -4.1504 z M48.20310625 4.3260000000000005 q0.46875 0 0.8056640625 0.33203125 t0.33691 0.80078 t-0.33691 0.80566 t-0.80566 0.33691 t-0.80078 -0.33691 t-0.33203 -0.80566 t0.33203 -0.80078 t0.80078 -0.33203 z M47.51950625 8.73 l1.377 0 l0 10.713 l-1.377 0 l0 -10.713 z M51.73824375 15.3809 l-0.019531 -1.1426 q-0.029296875 -0.83984375 0.068359375 -1.42578125 q0.21484375 -1.845703125 0.9375 -2.705078125 q0.703125 -0.751953125 1.435546875 -1.162109375 q1.2109375 -0.517578125 2.763671875 -0.48828125 q1.2109375 0 2.241210938 0.6103515625 t1.4697 1.6406 t0.43945 3.2275 l0 5.5078 l-1.3672 0 l0 -5.1074 q0 -1.85546875 -0.15625 -2.48046875 q-0.244140625 -1.064453125 -0.966796875 -1.508789063 t-2.1387 -0.44434 q-1.25 0 -2.2265625 0.72265625 t-0.9082 1.9727 q-0.185546875 0.80078125 -0.185546875 2.919921875 l0 3.9258 l-1.3867 0 l0 -4.0625 z M73.02746875 15.6348 l1.1523 0.61523 q-0.556640625 1.123046875 -1.30859375 1.806640625 t-1.6895 1.04 t-2.1191 0.35645 q-2.6171875 0 -4.091796875 -1.713867188 t-1.4746 -3.8721 q0 -2.041015625 1.25 -3.6328125 q1.58203125 -2.03125 4.248046875 -2.03125 q2.724609375 0 4.365234375 2.080078125 q1.162109375 1.46484375 1.171875 3.65234375 l-9.6191 0 q0.0390625 1.875 1.19140625 3.071289063 t2.8418 1.1963 q0.8203125 0 1.591796875 -0.2880859375 t1.3135 -0.75684 t1.1768 -1.5234 z M73.02746875 12.7539 q-0.2734375 -1.103515625 -0.80078125 -1.762695313 t-1.3965 -1.0645 t-1.8262 -0.40527 q-1.572265625 0 -2.705078125 1.015625 q-0.8203125 0.7421875 -1.240234375 2.216796875 l7.9688 0 z"></path></g></svg>